<?xml version="1.0" encoding="utf-8"?>
<!-- Generator: Adobe Illustrator 19.0.0, SVG Export Plug-In . SVG Version: 6.00 Build 0)  -->
<svg version="1.1" id="Layer_1" xmlns="http://www.w3.org/2000/svg" xmlns:xlink="http://www.w3.org/1999/xlink" x="0px" y="0px"
	 viewBox="0 0 262.8 100" style="enable-background:new 0 0 262.8 100;" xml:space="preserve">
<style type="text/css">
	.st0{fill:#088C45;}
	.st1{fill:#010101;}
	.st2{fill:#FDFEFF;}
</style>
<path id="XMLID_29_" class="st0" d="M124.8,1.5c-1.2,0.2-2.2,0.2-2.3,0.2s-0.2,0-0.3,0.2c-0.1,0.1-0.3,0.2-0.5,0.1
	c-0.2-0.1-0.4,0-0.4,0.1c-0.1,0.1-0.3,0.2-0.4,0.1c-0.2,0-0.4,0-0.5,0.2c-0.1,0.1-0.2,0.2-0.2,0.1c0-0.2-3.1,0.9-4.5,1.7
	c-6,3.3-9.5,7-12.3,13c-0.6,1.3-1.4,3.3-1.7,4.5c-0.5,1.9-0.5,2.5-0.4,5.4c0.1,3.7,0.7,6.2,2.1,8.7c1.2,2.2,1.3,2.2,1.8,0.8
	c0.6-1.6,2.8-5.5,4.6-8c3.7-5.3,9.3-9.8,14.5-11.7c2.3-0.8,6.1-1.6,7.4-1.6c0.6,0,1.1,0,1.3-0.1c0.3-0.2,5,0.2,7.4,0.7
	c3.3,0.6,9.2,2.2,10.8,2.9c0.4,0.2,2.1,0.9,3.9,1.6c1.8,0.7,4,1.7,5,2.2l1.8,0.9l-0.8,0.2c-3.8,1-10,3.6-11.3,4.8
	c-0.3,0.2-0.6,0.4-0.7,0.4c-0.1,0-0.2,0.1-0.2,0.2c0,0.1-0.2,0.2-0.3,0.2s-0.3,0.1-0.3,0.2c0,0.1-0.1,0.2-0.2,0.1
	c-0.5-0.3-7,5.4-12.4,10.9c-1.2,1.2-2.6,2.7-3.2,3.3c-2.1,2.1-5.6,4.1-7.7,4.3c-0.5,0-0.9,0.1-1,0.2c-0.2,0.2-1.8,0.2-1.9-0.1
	c-0.1-0.1-0.3-0.2-0.6-0.1c-1.2,0.3-5.1-1.5-7.1-3.2l-1.2-1l0.1,1.7c0.2,2.9,1.8,5.4,4.1,6.5c0.4,0.2,1.6,0.6,2.6,0.8
	c2.3,0.6,5.4,0.5,7.4-0.2c0.7-0.3,1.3-0.4,1.3-0.4c0,0.2,3.1-1.5,5-2.7c3.2-2.1,6.3-4.7,10.9-9.2c2.3-2.3,4.7-4.5,5.3-4.9
	c0.6-0.4,1-0.8,1.1-0.9c0-0.1,0.2-0.2,0.4-0.2s0.3-0.1,0.3-0.2c0-0.1,0.1-0.2,0.2-0.2c0.1,0,1.4-0.6,2.9-1.4c3-1.6,4.6-2.3,7.8-3.2
	c3.4-1,6.5-1.6,10.2-1.9l3.3-0.3l-2.2-1.7c-2.9-2.3-5.2-3.9-8.4-5.8c-3.3-2-8.7-4.9-10.9-5.8c-2.3-1-5.8-2.3-5.8-2.1
	c0,0.1-0.1,0-0.3-0.1c-0.2-0.1-0.4-0.2-0.4-0.2c-0.1,0-0.2,0-0.2,0c0,0-0.3,0-0.5-0.1c-0.2,0-1.3-0.3-2.3-0.5
	c-3.9-0.9-6-1.2-9.8-1.2c-3.8,0-5.8,0.2-9.1,1c-1,0.2-2,0.5-2.1,0.5c-0.1,0-0.4,0.1-0.5,0.2c-0.2,0.1-0.3,0.1-0.3,0
	c0-0.1-0.2,0-0.3,0.1c-0.2,0.2-0.3,0.2-0.3,0.1c0-0.1-0.2,0-0.5,0.1c-0.3,0.2-0.6,0.3-0.6,0.2c-0.1,0-1.2,0.5-2.6,1.1
	c-2.5,1.2-6.1,3.6-8.1,5.4c-0.6,0.6-1.1,0.9-1.1,0.8c0-0.6,1.8-4.1,2.7-5.2c2.5-3.5,7.2-6.2,12.8-7.4c2.1-0.5,10.1-0.4,13,0.1
	c5.2,0.9,10.5,2.5,15.6,4.5c3.6,1.4,10.2,4.4,10.7,4.8c0.2,0.1,0.3,0.2,0.4,0.1c0.3-0.3-3.2-3.5-6.5-5.8c-3.2-2.3-6.2-4-11.1-6.2
	c-1.5-0.7-5-1.8-5.7-1.8c-0.3,0-0.6-0.1-0.6-0.2c-0.1-0.1-0.2-0.2-0.3-0.1c-0.1,0.1-0.3,0.1-0.5,0c-0.1-0.1-0.5-0.2-0.8-0.2
	c-0.3,0-1.8-0.2-3.2-0.4C132.5,1.1,127.8,1.1,124.8,1.5z"/>
<path id="XMLID_28_" class="st0" d="M151,22.7c-2.1,0.8-4.1,1.2-13.7,2.8c-4.8,0.8-10.1,2.1-13.2,3.2c-1.2,0.4-2.4,0.8-2.7,0.9
	c-0.2,0-0.6,0.2-0.9,0.4c-0.3,0.2-0.5,0.3-0.5,0.2c0-0.2-3.8,1.8-5.7,3c-5.5,3.6-10.7,8.2-13.9,12.5c-4.1,5.6-7.2,13.6-7.2,18.8
	l0,1.4l0.3-0.8c0.2-0.4,0.4-0.8,0.5-0.9c0.1-0.1,0.3-0.3,0.4-0.6c2.5-4.1,3.7-6,5.8-8.9c4.1-5.7,9-10.5,13.9-13.5
	c3.5-2.3,13.9-7.3,15.8-7.6c0.3,0,0.6-0.2,0.8-0.3c0.1-0.1,0.4-0.2,0.5-0.2c0.4-0.1,10.3-4,12.4-4.9c2.9-1.3,6.2-3.3,7.6-4.5
	C152.6,22.3,152.6,22.1,151,22.7z"/>
<path id="XMLID_27_" class="st0" d="M162.5,30.9c-0.2,0.5-0.5,1.1-0.6,1.4c-0.1,0.4-0.2,0.6-0.4,0.6c-0.1,0-0.2,0.1-0.2,0.3
	s-0.1,0.5-0.3,0.6c-0.2,0.2-0.4,0.5-0.4,0.8c-0.1,0.3-0.3,0.5-0.4,0.5s-0.2,0.2-0.2,0.3s-0.1,0.3-0.2,0.3c-0.1,0-0.3,0.2-0.4,0.3
	c-0.4,1.1-7.9,8.6-8.5,8.6c-0.1,0-0.3,0.1-0.4,0.3c-0.4,0.6-3.8,2.7-6.4,4c-4.6,2.2-8.7,3.3-12.2,3.4l-1.9,0l1,0.6
	c6.1,3.5,16,1.5,23.3-4.7c3.8-3.2,6.6-8.1,8-13.7c0.5-2.1,0.9-4.6,0.7-4.6C162.9,30.1,162.7,30.5,162.5,30.9z"/>
<path id="XMLID_26_" class="st0" d="M0.2,74.5V76h131.3h131.3v-1.6v-1.6H131.5H0.2V74.5z"/>
<path id="XMLID_25_" class="st1" d="M0.3,85.2c-0.1,1.1-0.2,2.3-0.3,2.5c-0.2,0.8,0.7,0.4,1.7-0.7c2.7-2.9,3.8-3.4,4.8-2.1
	c0.4,0.5,0.4,12.2,0,13c-0.3,0.6-1.1,1-1.9,1c-0.4,0-0.6,0.1-0.5,0.4c0.1,0.4,0.5,0.4,4,0.5c3.8,0,3.9,0,3.9-0.4
	c0-0.3-0.2-0.5-0.8-0.6C10,98.6,10,98.4,10,91.4v-6.3l0.5-0.5c0.6-0.6,1-0.5,2.5,0.3c0.8,0.5,2.9,2.6,3,3.1c0.1,0.2,0.2,0.2,0.5,0.2
	c0.3-0.1,0.4-0.3,0.3-0.8c-0.1-0.4-0.1-1.5-0.1-2.5v-1.8H8.5H0.5L0.3,85.2z"/>
<path id="XMLID_24_" class="st1" d="M62,83.9c-0.4,0.1-2,0.1-3.6,0.1c-3.8-0.2-4.8,0.1-6.7,2c-1.5,1.5-2.2,2.8-2.5,4.5
	c-0.6,3.1,1.4,6.8,4.3,8.2c2.5,1.2,6,0.9,8.3-0.7c1.2-0.8,2.5-2.3,2.5-2.9c0-0.4-0.8-0.3-1,0.1c-0.2,0.7-2.1,2.3-3.4,2.9
	c-3.2,1.5-6.2-0.1-7.3-3.8c-0.4-1.3-0.4-4.7-0.1-6.2c1-4.6,6.3-4.7,10-0.2c0.5,0.7,1.2,1.2,1.4,1.3c0.4,0.1,0.4,0,0-1.4
	c-0.2-0.8-0.5-2.1-0.6-2.8C63.2,83.6,63.2,83.5,62,83.9z"/>
<path id="XMLID_23_" class="st1" d="M143.2,83.8c-0.3,0.3-0.1,0.7,0.4,0.7c0.3,0,0.7,0.2,1,0.5c0.5,0.5,0.5,0.7,0.5,6.6
	c0,5.6,0,6-0.4,6.4c-0.2,0.2-0.6,0.4-0.9,0.4c-0.3,0-0.5,0.2-0.5,0.4c0,0.4,0.3,0.4,3.3,0.4c2.8,0,3.3,0,3.3-0.3
	c0-0.2-0.2-0.3-0.4-0.3c-0.2,0-0.6-0.2-0.9-0.4c-0.4-0.4-0.4-0.7-0.4-3.6v-3.1l1.4,0c0.8,0,1.6,0.2,2,0.4c0.7,0.4,1.3,1.2,1.3,1.8
	c0,0.7,0.2,1.1,0.6,1.1c0.2,0,0.3-0.7,0.3-3.7c0-3.1,0-3.7-0.3-3.5c-0.2,0.1-0.4,0.4-0.6,0.8c-0.4,1.4-2.1,2.4-3.8,2.4h-0.9V88
	c0-2.6,0-2.8,0.5-3.1c1.4-1,4.7,0.1,6.5,2.1c1.3,1.5,1.6,1.4,1.4-0.3c-0.1-0.8-0.1-1.8-0.1-2.2v-0.9h-6.5
	C146.3,83.6,143.3,83.7,143.2,83.8z"/>
<path id="XMLID_22_" class="st1" d="M131.5,87.8l-2.3,0.1l-0.9,0.9c-0.6,0.7-0.9,1.1-0.9,1.7c0,1.5,0.3,2,2.1,2.9
	c0.9,0.4,1.7,0.8,1.9,0.8c0.1,0,0.6,0.3,0.9,0.6c0.7,0.6,0.9,1.7,0.5,2.6c-0.3,0.5-1.4,1.1-2,1.1c-0.7,0-2.4-1.7-2.8-2.8
	c-0.2-0.6-0.5-1-0.7-1c-0.3,0-0.3,0.3-0.2,1.9c0.1,1.1,0.3,2,0.4,2.1c0.4,0.3,3,0.5,3.9,0.3c1.3-0.2,2.7-1.1,3.1-2
	c0.4-0.9,0.5-2.5,0.1-3.3c-0.2-0.5-1.1-1.3-1.5-1.4c-0.1,0-0.3-0.1-0.6-0.3c-0.3-0.2-0.5-0.2-0.5-0.1c0,0.1-0.2,0-0.3-0.1
	c-0.2-0.2-0.3-0.2-0.3-0.1s-0.3,0-0.6-0.2c-0.8-0.4-1.4-1.1-1.4-1.7c0-0.6,0.9-1.3,1.8-1.3c0.7,0,1,0.2,1.5,0.8
	c0.4,0.4,0.8,1.1,1,1.5c0.6,1.1,0.8,0.5,0.6-1.4c-0.1-0.9-0.2-1.7-0.3-1.6C133.9,87.7,132.8,87.8,131.5,87.8z"/>
<path id="XMLID_21_" class="st1" d="M211.4,91.6c-1,2.2-2.1,4.3-2.3,4.8c-0.5,1-1.8,2.3-2.3,2.1c-0.2-0.1-0.3,0-0.3,0.3
	c0,0.4,0.2,0.4,2.3,0.4c1.9,0,2.3-0.1,2.3-0.3c0-0.2-0.2-0.4-0.5-0.4c-0.3,0-0.6-0.3-0.8-0.6c-0.3-0.5-0.3-0.7,0.2-1.6l0.5-1.1
	l1.9,0.1l2,0.1l0.4,1.1l0.4,1.1l-0.5,0.5c-0.3,0.3-0.6,0.6-0.8,0.6c-0.2,0-0.3,0.2-0.3,0.3c0,0.3,0.5,0.3,3,0.3c2.4,0,3-0.1,3-0.3
	c0-0.2-0.2-0.4-0.5-0.4c-0.3-0.1-0.7-0.4-1-0.8c-0.4-0.5-4-8.5-4.3-9.7c-0.1-0.2-0.2-0.4-0.3-0.4C213.4,87.6,212.5,89.4,211.4,91.6z
	"/>
<path id="XMLID_20_" class="st1" d="M65.3,88.1c0,0.2,0.3,0.4,0.7,0.5l0.7,0.2v4.6v4.6l-0.7,0.1c-0.4,0.1-0.7,0.3-0.7,0.4
	c0,0.2,0.5,0.3,2.6,0.3c2.1,0,2.6-0.1,2.6-0.3c0-0.2-0.2-0.3-0.4-0.3c-1,0-1.1-0.7-1.1-5c0-3.6,0-4.1,0.4-4.4
	c0.2-0.2,0.5-0.4,0.7-0.4c0.2,0,0.3-0.2,0.3-0.3c0-0.3-0.4-0.3-2.5-0.3C65.9,87.9,65.3,87.9,65.3,88.1z"/>
<path id="XMLID_19_" class="st1" d="M71.3,89.2c0,0.7-0.1,1.5-0.1,1.7c-0.3,0.7,0.6,0.4,1.4-0.5c1.2-1.3,2.2-1.9,2.8-1.6
	c0.4,0.2,0.4,0.4,0.4,4.7L75.6,98l-0.7,0.2c-0.4,0.1-0.7,0.3-0.7,0.5c0,0.2,0.6,0.3,2.7,0.3c2,0,2.7-0.1,2.7-0.3
	c0-0.2-0.3-0.4-0.7-0.5L78.1,98L78,93.5c-0.1-5.3,0-5.4,1.7-4.5c0.6,0.3,1.3,1,1.7,1.5c0.4,0.5,0.8,0.9,0.9,0.9
	c0.1,0,0.2-0.8,0.3-1.8l0.1-1.7H77h-5.7V89.2z"/>
<path id="XMLID_18_" class="st1" d="M83.3,88.2c0,0.2,0.2,0.3,0.4,0.3c0.2,0,0.6,0.2,0.8,0.4c0.3,0.4,0.4,1,0.4,4.6
	c0,4.4-0.1,4.8-0.9,4.8c-0.2,0-0.4,0.2-0.4,0.3c0,0.3,0.4,0.3,2.5,0.3c2,0,2.5-0.1,2.5-0.3c0-0.2-0.2-0.3-0.4-0.3
	c-0.9,0-0.9-0.4-0.9-5v-4.4l0.7-0.2c0.4-0.1,0.7-0.4,0.7-0.5c0-0.2-0.6-0.3-2.6-0.3C83.7,87.9,83.3,87.9,83.3,88.2z"/>
<path id="XMLID_17_" class="st1" d="M90.7,88.4c0,0.3-0.1,1-0.3,1.7c-0.2,0.7-0.2,1.2-0.1,1.2c0.1,0,0.7-0.4,1.2-1
	c1.3-1.4,2.1-1.8,4.1-1.8h1.6L96,90.1c-2.5,3.4-6.1,8.3-6.3,8.6c-0.1,0.2,1,0.3,5.2,0.3h5.4v-0.5c0-0.3,0.2-1.2,0.5-2
	c0.6-1.9,0.4-1.9-1.2-0.4c-1.7,1.7-3,2.2-5,2.2c-0.9,0-1.7,0-1.7-0.1c0-0.1,1.6-2.3,3.6-4.9c2-2.7,3.6-4.9,3.7-5.1
	c0.1-0.2-0.8-0.3-4.7-0.3h-4.8V88.4z"/>
<path id="XMLID_16_" class="st1" d="M101.8,88.2c0,0.2,0.2,0.3,0.4,0.3c0.8,0,0.9,0.4,0.9,5L103,98l-0.7,0.2
	c-0.4,0.1-0.7,0.3-0.7,0.5c0,0.2,1.1,0.3,5.1,0.3c4.9,0,5.1,0,5.1-0.4c0-0.2,0.2-1,0.4-1.8c0.5-1.8,0.2-2.1-0.8-0.9
	c-0.9,1-3.2,2.2-4.6,2.4c-1.3,0.2-1.5-0.2-1.4-2.9l0.1-2.1l1,0.1c1.3,0.1,2,0.6,2.3,1.6c0.1,0.5,0.4,0.9,0.6,0.9
	c0.2,0,0.3-0.6,0.3-2.7c0-2.4,0-2.7-0.4-2.6c-0.2,0-0.4,0.3-0.5,0.6c-0.2,0.8-1.1,1.3-2.2,1.4l-1,0.1l-0.1-1.8c0-1.5,0-1.8,0.3-2.1
	c1-0.7,3.5,0.2,4.7,1.6c0.9,1.1,1.2,0.8,1-1.1l-0.1-1.5h-4.7C102.5,87.9,101.8,87.9,101.8,88.2z"/>
<path id="XMLID_15_" class="st1" d="M113,88.2c0,0.2,0.1,0.3,0.3,0.3c0.2,0,0.6,0.2,0.9,0.5l0.6,0.5l-0.1,3.9
	c-0.1,3.7-0.1,3.9-0.6,4.4c-0.3,0.3-0.7,0.6-0.8,0.6c-0.2,0-0.3,0.2-0.3,0.3c0,0.3,0.4,0.3,2.5,0.3c2,0,2.5-0.1,2.5-0.3
	c0-0.2-0.3-0.4-0.7-0.4c-0.5,0-0.8-0.3-1.2-0.8c-0.5-0.7-0.5-1-0.5-3.9c0-1.8,0-3.2,0.1-3.2c0.1,0,3.6,3.6,6.2,6.5
	c1.2,1.3,2.3,2.4,2.5,2.4c0.3,0.1,0.3-0.7,0.3-4.5c0-4.1,0-4.6,0.4-5.2c0.2-0.4,0.6-0.8,0.9-0.8c0.3-0.1,0.5-0.3,0.5-0.5
	c0-0.2-0.5-0.3-2.3-0.3c-2.5,0-3,0.2-1.6,0.9s1.5,1.1,1.5,4.1l-0.1,2.7l-3.6-3.9l-3.6-3.9h-1.8C113.3,87.9,113,87.9,113,88.2z"/>
<path id="XMLID_45_" class="st1" d="M159,88.3c-1.3,0.6-2.7,2.1-3.1,3.3c-0.4,1.2-0.3,3.4,0.2,4.5c1,2.1,3.3,3.3,5.7,3.1
	c1.6-0.1,2.7-0.6,3.8-1.8c1.2-1.2,1.7-2.5,1.5-4.2c-0.1-1.7-0.6-2.5-1.8-3.7C163.7,87.9,160.8,87.4,159,88.3z M162.8,88.9
	c1.2,0.6,1.8,2,1.8,4.7c0,1.9-0.1,2.4-0.5,3.2c-0.6,1.3-1.5,1.8-2.9,1.8c-1,0-1.2-0.1-1.8-0.7c-0.9-1-1.2-1.8-1.4-3.6
	c-0.1-1.8,0.4-4.1,1-4.9C159.8,88.5,161.5,88.3,162.8,88.9z"/>
<path id="XMLID_12_" class="st1" d="M168.2,88.1c0,0.2,0.3,0.5,0.7,0.7l0.7,0.4v3.4c0,3.8,0.2,4.4,1.4,5.5c1.1,0.9,2.2,1.3,3.8,1.1
	c1.6-0.1,2.2-0.5,3-1.8c0.6-0.9,0.6-1.1,0.7-3.9c0.1-3.2,0.2-3.7,1.3-4.5c0.4-0.3,0.8-0.4,1.3-0.3c1.4,0.3,1.5,0.4,1.5,4.6
	c0,4.1-0.1,4.6-1.2,5c-0.3,0.1-0.5,0.4-0.5,0.6c0,0.3,0.4,0.3,2.5,0.3c1.7,0,2.5-0.2,2.6-0.4c0-0.2-0.1-0.3-0.5-0.3
	c-0.3,0-0.8-0.2-1-0.5c-0.9-0.9-1.1-1.8-1.1-4.9v-3l1.3,1.3c1.6,1.6,4.4,4.7,6.2,6.5c0.7,0.8,1.4,1.4,1.6,1.4c0.3,0,0.3-0.8,0.3-4.7
	c0-5.1,0.1-5.5,1.2-6c0.3-0.1,0.5-0.4,0.5-0.6c0-0.3-0.4-0.3-2.6-0.3s-2.6,0-2.6,0.3c0,0.2,0.3,0.4,0.7,0.5c0.4,0.1,0.9,0.4,1.3,0.9
	c0.6,0.7,0.6,1,0.7,3.4c0,1.4,0,2.6-0.1,2.6c-0.1,0-1.8-1.8-3.7-3.9l-3.6-3.9l-4.5,0c-3.8,0-4.5,0-4.5,0.3c0,0.2,0.3,0.4,0.6,0.5
	c0.4,0.1,0.9,0.4,1.2,0.7c0.6,0.5,0.6,0.6,0.6,3.6c0,2.7-0.1,3.2-0.4,3.8c-1.3,2.1-4.1,2-5.2-0.2c-0.3-0.6-0.4-1.4-0.4-3.9
	c0-2.9,0-3.2,0.4-3.6c0.2-0.2,0.6-0.4,0.9-0.4c0.2,0,0.4-0.2,0.4-0.3c0-0.3-0.4-0.3-2.7-0.3C168.9,87.9,168.2,87.9,168.2,88.1z"/>
<path id="XMLID_41_" class="st1" d="M194.8,88.2c0,0.2,0.1,0.4,0.3,0.4c0.2,0,0.5,0.2,0.7,0.4c0.3,0.3,0.4,1,0.4,4.6
	c0,4.4-0.1,4.8-0.9,4.8c-0.2,0-0.4,0.2-0.4,0.4c0,0.4,0.2,0.4,3.4,0.4c3.6,0,4.5-0.2,5.8-1.2c0.8-0.7,1.9-2.7,2.1-4
	c0.3-2.1-1.2-4.8-3.1-5.6C201.6,87.8,194.8,87.6,194.8,88.2z M202.3,89.3c1.1,0.8,1.5,2.1,1.4,4.6c-0.2,3.3-1.1,4.6-3.3,4.6
	c-1.7,0-1.8-0.1-1.8-5.1V89l0.6-0.2C200,88.5,201.4,88.7,202.3,89.3z"/>
<path id="XMLID_9_" class="st1" d="M218.8,89.5c-0.1,0.9,0,1.7,0.1,1.8c0.1,0.1,0.8-0.4,1.5-1.2c1.4-1.4,2.1-1.7,2.7-1.1
	c0.4,0.4,0.4,8.4,0,8.9c-0.2,0.2-0.5,0.4-0.9,0.5c-0.4,0.1-0.6,0.3-0.6,0.5c0,0.3,0.5,0.3,2.8,0.3c3,0,3.5-0.2,2.1-0.9l-0.7-0.3
	l-0.1-4.5c0-3.9,0-4.5,0.3-4.6c0.7-0.3,1.5,0.2,2.7,1.4c0.7,0.7,1.3,1.2,1.4,1c0.1-0.1,0.1-0.9,0.1-1.8l-0.1-1.6h-5.5h-5.5
	L218.8,89.5z"/>
<path id="XMLID_8_" class="st1" d="M230.9,88.2c0,0.2,0.3,0.4,0.6,0.5c0.3,0.1,0.7,0.4,0.8,0.7c0.3,0.7,0.3,7.7,0,8.4
	c-0.1,0.3-0.4,0.6-0.7,0.7c-0.3,0.1-0.5,0.3-0.5,0.5c0,0.2,0.5,0.3,2.5,0.3c2,0,2.5-0.1,2.5-0.3c0-0.2-0.1-0.3-0.3-0.3
	s-0.5-0.2-0.7-0.4c-0.3-0.3-0.4-1-0.4-4.8v-4.5l0.7-0.2c0.4-0.1,0.7-0.4,0.7-0.6c0-0.2-0.5-0.3-2.6-0.3
	C231.3,87.9,230.9,87.9,230.9,88.2z"/>
<path id="XMLID_36_" class="st1" d="M240.6,88.4c-2.2,1-3.6,3.3-3.4,5.6c0.3,2.8,2.4,4.9,5.3,5.2c1.6,0.2,2.9-0.2,4.1-1.1
	c2.2-1.7,2.8-4.6,1.6-7.1C246.7,88.2,243.4,87.1,240.6,88.4z M244.5,88.9c0.4,0.2,0.9,0.8,1.2,1.3c0.4,0.8,0.5,1.3,0.5,3.4
	c0,2.1-0.1,2.6-0.5,3.4c-1.2,2.3-4.3,2.2-5.4-0.2c-1.2-2.7-0.5-7.1,1.2-7.9C242.2,88.4,243.7,88.5,244.5,88.9z"/>
<path id="XMLID_5_" class="st1" d="M249.4,88.2c0,0.2,0.3,0.4,0.5,0.5c0.2,0,0.6,0.2,0.8,0.4c0.3,0.3,0.4,0.8,0.4,4.1
	c0,4.1-0.2,4.7-1.2,5.1c-0.4,0.1-0.6,0.4-0.6,0.6c0,0.2,0.5,0.3,2.5,0.3c1.9,0,2.5-0.1,2.5-0.3c0-0.2-0.3-0.4-0.7-0.5
	c-0.4-0.1-0.9-0.5-1.2-1c-0.5-0.7-0.5-1-0.5-4v-3.2l0.5,0.4c0.3,0.2,2.2,2.3,4.4,4.6c2.2,2.3,4,4.2,4.1,4.2s0.2-2.1,0.2-4.7V90
	l0.9-0.8c0.5-0.5,0.9-1,0.9-1.1c0-0.1-0.9-0.2-2.5-0.2c-2.1,0-2.5,0.1-2.5,0.3c0,0.2,0.3,0.4,0.6,0.5c0.4,0.1,0.9,0.4,1.2,0.7
	c0.5,0.5,0.5,0.8,0.6,3.4c0.1,1.6,0.1,2.9,0,2.9c-0.1,0-1.8-1.8-3.7-3.9l-3.7-3.9h-1.8C249.6,87.9,249.4,87.9,249.4,88.2z"/>
<path id="XMLID_4_" class="st1" d="M17.8,88.6c0,0.2,0.2,0.4,0.5,0.5c0.3,0.1,0.6,0.4,0.7,0.6c0.2,0.6,0.2,8.1-0.1,8.6
	c-0.1,0.2-0.4,0.4-0.7,0.4c-0.2,0-0.4,0.2-0.4,0.3c0,0.3,0.4,0.3,2.6,0.3c1.6,0,2.6-0.1,2.6-0.2c0-0.1-0.1-0.2-0.3-0.2
	c-0.2,0-0.6-0.2-0.9-0.5c-0.6-0.4-0.6-0.5-0.5-2.6l0.1-2.1l2.7-0.1l2.7-0.1v2.3c0,2.5-0.1,2.8-1.1,2.9c-0.3,0-0.5,0.2-0.5,0.3
	c0,0.2,0.6,0.3,2.6,0.3c1.4,0,2.6-0.1,2.6-0.2c0-0.1-0.3-0.3-0.7-0.5l-0.7-0.4v-4.5v-4.5l0.7-0.2c0.4-0.1,0.7-0.4,0.7-0.5
	c0-0.2-0.6-0.3-2.7-0.3c-2.2,0-2.7,0-2.7,0.3c0,0.2,0.2,0.3,0.4,0.3c0.9,0,1.3,0.8,1.3,2.2v1.3h-2.8h-2.8v-1.3
	c0-1.4,0.5-2.2,1.3-2.2c0.2,0,0.4-0.2,0.4-0.3c0-0.3-0.4-0.3-2.6-0.3S17.8,88.3,17.8,88.6z"/>
<path id="XMLID_3_" class="st1" d="M31.2,88.6c0,0.2,0.3,0.4,0.7,0.5l0.7,0.2v4.4c0,4.7-0.1,5-1.1,5c-0.3,0-0.5,0.1-0.4,0.3
	c0.1,0.2,1.3,0.3,5.1,0.4l5,0l0.4-1.6c0.2-0.9,0.5-1.8,0.5-1.9c0.1-0.5-0.6-0.3-0.9,0.3c-0.2,0.3-0.7,0.8-1.2,1
	c-0.5,0.3-0.9,0.6-1,0.6c-0.2,0.3-2.1,0.9-2.7,0.9c-1.1,0-1.3-0.3-1.3-2.7v-2.2h1c1.2,0,2.3,0.8,2.5,1.8c0.1,0.4,0.3,0.7,0.5,0.7
	c0.2,0,0.3-0.5,0.3-2.6c0-2.4,0-2.6-0.4-2.6c-0.2,0-0.4,0.1-0.4,0.3c0,0.6-1.3,1.5-2.3,1.6l-1,0.1v-1.9c0-1.7,0-1.9,0.5-2.2
	c1-0.6,3.5,0.3,4.6,1.7c0.4,0.4,0.7,0.8,0.8,0.7c0.1-0.1,0.1-0.9,0-1.7l-0.2-1.6h-4.8C32.2,88.3,31.2,88.4,31.2,88.6z"/>
<line id="XMLID_2_" class="st1" x1="214.1" y1="93.7" x2="211.5" y2="93.7"/>
<polygon id="XMLID_1_" class="st2" points="212.8,91.1 214.2,94.5 211.1,94.5 "/>
</svg>
